<svg id="Layer_1" viewBox="0 0 512 512" xmlns="http://www.w3.org/2000/svg" data-name="Layer 1"><path fill="#a3c6e6" d="m202.354 240.015a6.663 6.663 0 1 0 0 9.423 6.671 6.671 0 0 0 0-9.423zm109.687 0a6.663 6.663 0 1 0 0 9.423 6.67 6.67 0 0 0 0-9.423zm-108.988 189.523v8.422a10.91 10.91 0 0 0 10.862 10.862h80.973a10.911 10.911 0 0 0 10.863-10.862v-8.422a34.173 34.173 0 0 1 -5.668.472h-91.363a34.161 34.161 0 0 1 -5.667-.472zm19.254 32.062v7.176a10.911 10.911 0 0 0 10.862 10.863h42.465a10.912 10.912 0 0 0 10.866-10.866v-7.173zm111.875-65.313c0-.125 0-.25 0-.375 0-79 44.395-61.369 44.395-137.961a124.178 124.178 0 1 0 -248.355 0c0 76.592 44.4 58.956 44.4 137.961v.376l-16.929 16.929a5.846 5.846 0 0 1 -8.215 0l-47.788-47.791a5.845 5.845 0 0 1 0-8.215l17.834-17.834a6.391 6.391 0 0 0 .834-8.007q-3.255-6.145-6.038-12.85-2.865-6.913-4.987-13.878a6.365 6.365 0 0 0 -6.089-4.517v-.025h-25.21a5.842 5.842 0 0 1 -5.808-5.809v-67.58a5.84 5.84 0 0 1 5.808-5.808h25.211a6.392 6.392 0 0 0 6.255-5.085q2.058-6.681 4.818-13.328 2.891-6.972 6.3-13.353a6.366 6.366 0 0 0 -1.114-7.494l.016-.017-17.83-17.834a5.845 5.845 0 0 1 0-8.215l47.787-47.788a5.846 5.846 0 0 1 8.215 0l17.835 17.835a6.389 6.389 0 0 0 8.006.834q6.145-3.255 12.851-6.038 6.912-2.865 13.877-4.987a6.364 6.364 0 0 0 4.517-6.088h.025v-25.212a5.842 5.842 0 0 1 5.808-5.808h67.582a5.842 5.842 0 0 1 5.807 5.808v25.212a6.39 6.39 0 0 0 5.084 6.254q6.681 2.059 13.328 4.818 6.974 2.892 13.353 6.3a6.367 6.367 0 0 0 7.5-1.115l.016.017 17.834-17.835a5.848 5.848 0 0 1 8.216 0l47.787 47.788a5.845 5.845 0 0 1 0 8.215l-17.835 17.835a6.389 6.389 0 0 0 -.834 8.006q3.255 6.147 6.038 12.851 2.865 6.913 4.987 13.877a6.364 6.364 0 0 0 6.088 4.517v.025h25.208a5.841 5.841 0 0 1 5.808 5.808v67.581a5.842 5.842 0 0 1 -5.808 5.809h-25.211a6.388 6.388 0 0 0 -6.254 5.084q-2.06 6.679-4.816 13.322-2.892 6.977-6.307 13.359a6.365 6.365 0 0 0 1.114 7.494l-.016.017 17.834 17.835a5.844 5.844 0 0 1 0 8.214l-47.788 47.788a5.846 5.846 0 0 1 -8.215 0l-16.929-16.93zm-156.091 14.6-11.366 11.365a18.616 18.616 0 0 1 -26.28 0l-47.788-47.793a18.616 18.616 0 0 1 0-26.28l14.552-14.552a158.917 158.917 0 0 1 -8.6-20.751h-20.575a18.621 18.621 0 0 1 -18.584-18.584v-67.581a18.621 18.621 0 0 1 18.584-18.584h20.573a158.917 158.917 0 0 1 8.6-20.751l-14.55-14.552a18.615 18.615 0 0 1 0-26.28l47.788-47.787a18.615 18.615 0 0 1 26.28 0l14.552 14.551a158.98 158.98 0 0 1 20.75-8.6v-20.575a18.621 18.621 0 0 1 18.584-18.583h67.582a18.62 18.62 0 0 1 18.583 18.583v20.573a158.923 158.923 0 0 1 20.751 8.6l14.552-14.552a18.615 18.615 0 0 1 26.28 0l47.788 47.787a18.617 18.617 0 0 1 0 26.28l-14.553 14.553a158.985 158.985 0 0 1 8.6 20.75h20.576a18.621 18.621 0 0 1 18.584 18.584v67.581a18.622 18.622 0 0 1 -18.584 18.584h-20.57a158.99 158.99 0 0 1 -8.6 20.75l14.552 14.553a18.617 18.617 0 0 1 0 26.28l-47.788 47.787a18.616 18.616 0 0 1 -26.28 0l-11.371-11.363a34.358 34.358 0 0 1 -12.187 13.693v13.387a23.707 23.707 0 0 1 -19.255 23.227v7.586a23.69 23.69 0 0 1 -23.637 23.638h-42.465a23.69 23.69 0 0 1 -23.637-23.638v-7.586a23.707 23.707 0 0 1 -19.255-23.227v-13.386a34.369 34.369 0 0 1 -12.186-13.693zm79.107-133.7a6.663 6.663 0 1 0 0 9.423 6.67 6.67 0 0 0 0-9.423zm1.676 23.075a19.448 19.448 0 0 0 13.05-18.364c0-17.257-20.964-25.962-33.183-13.744a19.458 19.458 0 0 0 7.357 32.108v116.973h-17.134v-74.473a6.384 6.384 0 0 0 -3.042-5.442l-21.892-16.609v-57.621a19.447 19.447 0 0 0 13.05-18.363c0-17.258-20.965-25.962-33.183-13.745a19.458 19.458 0 0 0 7.357 32.108v60.755h.03a6.347 6.347 0 0 0 2.515 5.065l22.39 16.986v71.339h-7.469a21.379 21.379 0 0 1 -21.326-21.326c0-83.963-44.394-66.945-44.394-137.961a111.4 111.4 0 0 1 222.8 0c0 71.016-44.395 54-44.395 137.961a21.379 21.379 0 0 1 -21.326 21.326h-11.3v-71.335l21.893-16.609a6.383 6.383 0 0 0 3.041-5.442v-60.759a19.448 19.448 0 0 0 13.051-18.363c0-17.258-20.965-25.962-33.183-13.745a19.458 19.458 0 0 0 7.357 32.108v57.621l-21.888 16.609a6.384 6.384 0 0 0 -3.042 5.442v74.473h-17.134v-116.981zm-213.493 42.275a6.393 6.393 0 0 0 -11.028-1.373c-2.405 3.247-.886 6.055.393 9.077l4.1 9.158a6.393 6.393 0 0 0 11.555-.006c1.551-3.3-.179-5.762-1.605-8.915l-3.412-7.941zm-13.567-47.694a6.394 6.394 0 0 0 -10.19-3.978c-3.37 2.6-2.469 5.892-1.875 9.176l2.007 9.866a6.4 6.4 0 1 0 12.351-3.3l-2.293-11.766zm-2.635-49.5a6.392 6.392 0 0 0 -9.925-5.65c-3.044 2.033-2.855 4.951-3 8.171l-.235 9.924c.017 8.066 12.719 9.042 12.776-.6l.384-11.843zm8.374-48.861a6.391 6.391 0 0 0 -6.855-8.091c-3.194.352-4.84 2.5-5.652 5.36l-3.056 11.949a6.388 6.388 0 1 0 12.459 2.825l3.1-12.041zm18.777-45.923a6.391 6.391 0 0 0 -4.951-9.379c-3.091-.33-5.221 1.316-6.614 3.907l-5.612 11.113a6.388 6.388 0 1 0 11.552 5.455l5.625-11.1zm28.182-40.844a6.394 6.394 0 0 0 -1.921-9.841c-3-1.546-5.979-.572-8.164 1.972l-7.9 9.7a6.392 6.392 0 0 0 5.263 10.284c3.547-.119 4.871-2.545 6.857-5.041zm79.177-58.681a6.388 6.388 0 1 0 -5.189-11.675l-11.869 5.62a6.394 6.394 0 0 0 -.91 10.8c3.469 2.587 6.307.762 9.089-.61l8.877-4.134zm47.311-14.685a6.387 6.387 0 1 0 -2.4-12.547l-12.833 2.829a6.387 6.387 0 1 0 3.12 12.388zm-99.916 47.256 9.74-7.658a6.388 6.388 0 1 0 -7.624-10.247l-10.349 8.142a6.387 6.387 0 0 0 8.238 9.763zm149.386-51.245a6.388 6.388 0 1 0 .326-12.771l-13.146.011c-8.13.27-8.532 12.986.908 12.755l11.912.008zm226.969 314.423a6.37 6.37 0 0 1 4.342 11.977l-28.573 10.34a6.37 6.37 0 0 1 -8.159-3.817l-10.338-28.573a6.369 6.369 0 1 1 11.976-4.341l5.11 14.121a224.008 224.008 0 0 0 18.1-88.711c0-110.928-80.63-204.916-188.874-222.556a6.371 6.371 0 1 1 2.046-12.576c114.392 18.642 199.6 117.966 199.6 235.132a238.265 238.265 0 0 1 -19.322 94.1z" fill-rule="evenodd"/></svg>