<?xml version="1.0" encoding="UTF-8" standalone="no"?>
<!-- Created with Inkscape (http://www.inkscape.org/) -->

<svg
   version="1.1"
   id="svg441"
   xml:space="preserve"
   width="682.66669"
   height="682.66669"
   viewBox="0 0 682.66669 682.66669"
   xmlns="http://www.w3.org/2000/svg"
   xmlns:svg="http://www.w3.org/2000/svg"><defs
     id="defs445"><clipPath
       clipPathUnits="userSpaceOnUse"
       id="clipPath455"><path
         d="M 0,512 H 512 V 0 H 0 Z"
         id="path453" /></clipPath></defs><g
     id="g447"
     transform="matrix(1.3333333,0,0,-1.3333333,0,682.66667)"><g
       id="g449"><g
         id="g451"
         clip-path="url(#clipPath455)"><g
           id="g457"
           transform="translate(311.0557,195.957)"><path
             d="m 0,0 c -23.423,0 -40.442,21.016 -36.127,44.149 l 5.281,28.309 c 3.263,17.487 -5.486,35.012 -21.385,42.839 -6.564,3.231 -14.457,-0.072 -16.798,-7.029 L -94.271,33.257 c -7.256,-21.564 -22.583,-43.993 -42.732,-54.398"
             style="fill:none;stroke:#a3c6e6;stroke-width:15;stroke-linecap:round;stroke-linejoin:round;stroke-miterlimit:10;stroke-dasharray:none;stroke-opacity:1"
             id="path459" /></g><g
           id="g461"
           transform="translate(174.2598,52.043)"><path
             d="m 0,0 c 0,-16.592 15.608,-30.043 54.081,-30.043 h 119.457 c 10.999,0 19.915,8.917 19.915,19.916 0,10.999 -8.916,19.916 -19.915,19.916 h -17.392 30.635 c 12.347,0 22.355,10.008 22.355,22.354 0,12.346 -10.008,22.354 -22.355,22.354 h -30.635 36.471 c 12.346,0 22.355,10.008 22.355,22.354 v 0.001 c 0,12.345 -10.009,22.354 -22.355,22.354 h -36.471 30.635 c 12.347,0 22.355,10.008 22.355,22.354 0,12.346 -10.008,22.354 -22.355,22.354 h -15.019"
             style="fill:none;stroke:#a3c6e6;stroke-width:15;stroke-linecap:round;stroke-linejoin:round;stroke-miterlimit:10;stroke-dasharray:none;stroke-opacity:1"
             id="path463" /></g><g
           id="g465"
           transform="translate(174.0527,74.7871)"><path
             d="m 0,0 v -37.169 c 0,-8.625 -6.992,-15.618 -15.618,-15.618 h -20.048 c -8.625,0 -15.618,6.993 -15.618,15.618 v 142.721 c 0,8.626 6.993,15.618 15.618,15.618 h 20.048 C -6.992,121.17 0,114.178 0,105.552 V 35.149"
             style="fill:none;stroke:#a3c6e6;stroke-width:15;stroke-linecap:round;stroke-linejoin:round;stroke-miterlimit:10;stroke-dasharray:none;stroke-opacity:1"
             id="path467" /></g><g
           id="g469"
           transform="translate(165.499,447.6348)"><path
             d="m 0,0 7.9,-16.007 c 0.302,-0.611 0.885,-1.035 1.559,-1.133 l 18.859,-2.74 c 1.7,-0.247 2.377,-2.334 1.149,-3.532 L 15.819,-36.714 c -0.488,-0.476 -0.711,-1.161 -0.595,-1.833 l 3.221,-18.784 c 0.29,-1.691 -1.485,-2.981 -3.004,-2.183 l -16.869,8.868 c -0.602,0.318 -1.323,0.318 -1.926,0 l -16.869,-8.868 c -1.519,-0.798 -3.295,0.492 -3.005,2.183 l 3.222,18.784 c 0.115,0.672 -0.107,1.357 -0.596,1.833 l -13.646,13.302 c -1.23,1.198 -0.551,3.285 1.147,3.532 l 18.86,2.74 c 0.675,0.098 1.258,0.522 1.559,1.133 L -4.782,0 C -3.804,1.982 -0.978,1.982 0,0 Z"
             style="fill:none;stroke:#a3c6e6;stroke-width:15;stroke-linecap:round;stroke-linejoin:round;stroke-miterlimit:10;stroke-dasharray:none;stroke-opacity:1"
             id="path471" /></g><g
           id="g473"
           transform="translate(72.5801,447.6348)"><path
             d="m 0,0 7.9,-16.007 c 0.302,-0.611 0.885,-1.035 1.559,-1.133 l 18.859,-2.74 c 1.7,-0.247 2.377,-2.334 1.149,-3.532 L 15.819,-36.714 c -0.487,-0.476 -0.71,-1.161 -0.595,-1.833 l 3.221,-18.784 c 0.29,-1.691 -1.485,-2.981 -3.004,-2.183 l -16.869,8.868 c -0.602,0.318 -1.323,0.318 -1.926,0 l -16.869,-8.868 c -1.519,-0.798 -3.295,0.492 -3.005,2.183 l 3.222,18.784 c 0.115,0.672 -0.107,1.357 -0.596,1.833 l -13.646,13.302 c -1.23,1.198 -0.551,3.285 1.147,3.532 l 18.86,2.74 c 0.675,0.098 1.258,0.522 1.559,1.133 L -4.782,0 C -3.804,1.982 -0.978,1.982 0,0 Z"
             style="fill:none;stroke:#a3c6e6;stroke-width:15;stroke-linecap:round;stroke-linejoin:round;stroke-miterlimit:10;stroke-dasharray:none;stroke-opacity:1"
             id="path475" /></g><g
           id="g477"
           transform="translate(258.418,447.6348)"><path
             d="m 0,0 7.9,-16.007 c 0.302,-0.611 0.885,-1.035 1.559,-1.133 l 18.859,-2.74 c 1.7,-0.247 2.377,-2.334 1.148,-3.532 L 15.819,-36.714 c -0.488,-0.476 -0.711,-1.161 -0.595,-1.833 l 3.221,-18.784 c 0.29,-1.691 -1.485,-2.981 -3.005,-2.183 l -16.868,8.868 c -0.602,0.318 -1.323,0.318 -1.926,0 l -16.869,-8.868 c -1.519,-0.798 -3.295,0.492 -3.005,2.183 l 3.222,18.784 c 0.115,0.672 -0.107,1.357 -0.596,1.833 l -13.646,13.302 c -1.23,1.198 -0.551,3.285 1.147,3.532 l 18.86,2.74 c 0.675,0.098 1.258,0.522 1.558,1.133 L -4.782,0 C -3.805,1.982 -0.978,1.982 0,0 Z"
             style="fill:none;stroke:#a3c6e6;stroke-width:15;stroke-linecap:round;stroke-linejoin:round;stroke-miterlimit:10;stroke-dasharray:none;stroke-opacity:1"
             id="path479" /></g><g
           id="g481"
           transform="translate(351.3105,447.6348)"><path
             d="m 0,0 7.899,-16.007 c 0.302,-0.611 0.885,-1.035 1.56,-1.133 l 18.859,-2.74 c 1.699,-0.247 2.376,-2.334 1.148,-3.532 L 15.819,-36.714 c -0.488,-0.476 -0.711,-1.161 -0.595,-1.833 l 3.221,-18.784 c 0.29,-1.691 -1.486,-2.981 -3.005,-2.183 l -16.868,8.868 c -0.603,0.318 -1.324,0.318 -1.927,0 l -16.869,-8.868 c -1.519,-0.798 -3.295,0.492 -3.005,2.183 l 3.222,18.784 c 0.115,0.672 -0.107,1.357 -0.596,1.833 l -13.646,13.302 c -1.23,1.198 -0.551,3.285 1.147,3.532 l 18.86,2.74 c 0.675,0.098 1.258,0.522 1.559,1.133 L -4.783,0 C -3.805,1.982 -0.979,1.982 0,0 Z"
             style="fill:none;stroke:#a3c6e6;stroke-width:15;stroke-linecap:round;stroke-linejoin:round;stroke-miterlimit:10;stroke-dasharray:none;stroke-opacity:1"
             id="path483" /></g><g
           id="g485"
           transform="translate(444.2021,447.6348)"><path
             d="m 0,0 7.899,-16.007 c 0.302,-0.611 0.885,-1.035 1.56,-1.133 l 18.859,-2.74 c 1.699,-0.247 2.377,-2.334 1.148,-3.532 L 15.819,-36.714 c -0.488,-0.476 -0.711,-1.161 -0.595,-1.833 l 3.221,-18.784 c 0.29,-1.691 -1.485,-2.981 -3.005,-2.183 l -16.868,8.868 c -0.603,0.318 -1.324,0.318 -1.926,0 l -16.87,-8.868 c -1.518,-0.798 -3.294,0.492 -3.004,2.183 l 3.222,18.784 c 0.114,0.672 -0.108,1.357 -0.596,1.833 l -13.647,13.302 c -1.229,1.198 -0.551,3.285 1.148,3.532 l 18.86,2.74 c 0.674,0.098 1.257,0.522 1.558,1.133 L -4.782,0 C -3.805,1.982 -0.979,1.982 0,0 Z"
             style="fill:none;stroke:#a3c6e6;stroke-width:15;stroke-linecap:round;stroke-linejoin:round;stroke-miterlimit:10;stroke-dasharray:none;stroke-opacity:1"
             id="path487" /></g><g
           id="g489"
           transform="translate(112.0635,343)"><path
             d="m 0,0 h -79.563 c -13.807,0 -25,11.193 -25,25 v 97 c 0,13.807 11.193,25 25,25 h 314.627"
             style="fill:none;stroke:#a3c6e6;stroke-width:15;stroke-linecap:round;stroke-linejoin:round;stroke-miterlimit:10;stroke-dasharray:none;stroke-opacity:1"
             id="path491" /></g><g
           id="g493"
           transform="translate(382.1914,490)"><path
             d="m 0,0 h 97.309 c 13.806,0 25,-11.193 25,-25 v -97 c 0,-13.807 -11.194,-25 -25,-25 h -332.543"
             style="fill:none;stroke:#a3c6e6;stroke-width:15;stroke-linecap:round;stroke-linejoin:round;stroke-miterlimit:10;stroke-dasharray:none;stroke-opacity:1"
             id="path495" /></g></g></g></g></svg>
